<mxfile host="Electron" modified="2024-04-12T07:47:47.716Z" agent="Mozilla/5.0 (Windows NT 10.0; Win64; x64) AppleWebKit/537.36 (KHTML, like Gecko) draw.io/24.1.0 Chrome/120.0.6099.109 Electron/28.1.0 Safari/537.36" etag="cd7qD6VWy_tLdG8J2cNi" version="24.1.0" type="device">
  <diagram id="C5RBs43oDa-KdzZeNtuy" name="Page-1">
    <mxGraphModel dx="1050" dy="621" grid="1" gridSize="10" guides="1" tooltips="1" connect="1" arrows="1" fold="1" page="1" pageScale="1" pageWidth="827" pageHeight="1169" math="0" shadow="0">
      <root>
        <mxCell id="WIyWlLk6GJQsqaUBKTNV-0" />
        <mxCell id="WIyWlLk6GJQsqaUBKTNV-1" parent="WIyWlLk6GJQsqaUBKTNV-0" />
        <mxCell id="n4m6zhsQNTLVs5OmzVJr-1" value="User (Student)" style="swimlane;fontStyle=1;align=center;verticalAlign=top;childLayout=stackLayout;horizontal=1;startSize=26;horizontalStack=0;resizeParent=1;resizeParentMax=0;resizeLast=0;collapsible=1;marginBottom=0;whiteSpace=wrap;html=1;" vertex="1" parent="WIyWlLk6GJQsqaUBKTNV-1">
          <mxGeometry x="40" y="40" width="160" height="240" as="geometry" />
        </mxCell>
        <mxCell id="n4m6zhsQNTLVs5OmzVJr-2" value="-&amp;nbsp; &amp;nbsp;user_id : int&lt;div&gt;-&amp;nbsp; &amp;nbsp;name: string&lt;/div&gt;&lt;div&gt;-&amp;nbsp; &amp;nbsp;email: string&lt;/div&gt;&lt;div&gt;-&amp;nbsp; &amp;nbsp;password_hash: string&lt;/div&gt;&lt;div&gt;-&amp;nbsp; &amp;nbsp;role: UserRole&lt;br&gt;&lt;div&gt;&lt;br&gt;&lt;/div&gt;&lt;/div&gt;" style="text;strokeColor=none;fillColor=none;align=left;verticalAlign=top;spacingLeft=4;spacingRight=4;overflow=hidden;rotatable=0;points=[[0,0.5],[1,0.5]];portConstraint=eastwest;whiteSpace=wrap;html=1;" vertex="1" parent="n4m6zhsQNTLVs5OmzVJr-1">
          <mxGeometry y="26" width="160" height="84" as="geometry" />
        </mxCell>
        <mxCell id="n4m6zhsQNTLVs5OmzVJr-3" value="" style="line;strokeWidth=1;fillColor=none;align=left;verticalAlign=middle;spacingTop=-1;spacingLeft=3;spacingRight=3;rotatable=0;labelPosition=right;points=[];portConstraint=eastwest;strokeColor=inherit;" vertex="1" parent="n4m6zhsQNTLVs5OmzVJr-1">
          <mxGeometry y="110" width="160" height="8" as="geometry" />
        </mxCell>
        <mxCell id="n4m6zhsQNTLVs5OmzVJr-4" value="+&amp;nbsp; &amp;nbsp;enorll (Course)&lt;div&gt;+&amp;nbsp; &amp;nbsp;add_to_cart (Course)&lt;/div&gt;&lt;div&gt;+&amp;nbsp; &amp;nbsp;make_payment&lt;/div&gt;&lt;div&gt;+&amp;nbsp; &amp;nbsp;add_review_and_ratings&lt;/div&gt;&lt;div&gt;+&amp;nbsp; &amp;nbsp;delete_account&lt;br&gt;&lt;div&gt;&lt;br&gt;&lt;/div&gt;&lt;/div&gt;" style="text;strokeColor=none;fillColor=none;align=left;verticalAlign=top;spacingLeft=4;spacingRight=4;overflow=hidden;rotatable=0;points=[[0,0.5],[1,0.5]];portConstraint=eastwest;whiteSpace=wrap;html=1;" vertex="1" parent="n4m6zhsQNTLVs5OmzVJr-1">
          <mxGeometry y="118" width="160" height="122" as="geometry" />
        </mxCell>
        <mxCell id="n4m6zhsQNTLVs5OmzVJr-9" value="Content" style="swimlane;fontStyle=1;align=center;verticalAlign=top;childLayout=stackLayout;horizontal=1;startSize=26;horizontalStack=0;resizeParent=1;resizeParentMax=0;resizeLast=0;collapsible=1;marginBottom=0;whiteSpace=wrap;html=1;" vertex="1" parent="WIyWlLk6GJQsqaUBKTNV-1">
          <mxGeometry x="650" y="800" width="160" height="80" as="geometry" />
        </mxCell>
        <mxCell id="n4m6zhsQNTLVs5OmzVJr-10" value="-&amp;nbsp; &amp;nbsp;contennt_id : int&lt;div&gt;-&amp;nbsp; &amp;nbsp;type : ContentType&lt;/div&gt;" style="text;strokeColor=none;fillColor=none;align=left;verticalAlign=top;spacingLeft=4;spacingRight=4;overflow=hidden;rotatable=0;points=[[0,0.5],[1,0.5]];portConstraint=eastwest;whiteSpace=wrap;html=1;" vertex="1" parent="n4m6zhsQNTLVs5OmzVJr-9">
          <mxGeometry y="26" width="160" height="54" as="geometry" />
        </mxCell>
        <mxCell id="n4m6zhsQNTLVs5OmzVJr-11" value="Enrollment" style="swimlane;fontStyle=1;align=center;verticalAlign=top;childLayout=stackLayout;horizontal=1;startSize=26;horizontalStack=0;resizeParent=1;resizeParentMax=0;resizeLast=0;collapsible=1;marginBottom=0;whiteSpace=wrap;html=1;" vertex="1" parent="WIyWlLk6GJQsqaUBKTNV-1">
          <mxGeometry x="40" y="870" width="160" height="80" as="geometry" />
        </mxCell>
        <mxCell id="n4m6zhsQNTLVs5OmzVJr-12" value="-&amp;nbsp; &amp;nbsp;student : User&lt;div&gt;-&amp;nbsp; &amp;nbsp;course : Course&lt;/div&gt;&lt;div&gt;-&amp;nbsp; &amp;nbsp;progress : float&lt;/div&gt;" style="text;strokeColor=none;fillColor=none;align=left;verticalAlign=top;spacingLeft=4;spacingRight=4;overflow=hidden;rotatable=0;points=[[0,0.5],[1,0.5]];portConstraint=eastwest;whiteSpace=wrap;html=1;" vertex="1" parent="n4m6zhsQNTLVs5OmzVJr-11">
          <mxGeometry y="26" width="160" height="54" as="geometry" />
        </mxCell>
        <mxCell id="n4m6zhsQNTLVs5OmzVJr-13" value="Review" style="swimlane;fontStyle=1;align=center;verticalAlign=top;childLayout=stackLayout;horizontal=1;startSize=26;horizontalStack=0;resizeParent=1;resizeParentMax=0;resizeLast=0;collapsible=1;marginBottom=0;whiteSpace=wrap;html=1;" vertex="1" parent="WIyWlLk6GJQsqaUBKTNV-1">
          <mxGeometry x="350" y="950" width="160" height="160" as="geometry" />
        </mxCell>
        <mxCell id="n4m6zhsQNTLVs5OmzVJr-14" value="-&amp;nbsp; &amp;nbsp;review_id : int&lt;div&gt;-&amp;nbsp; &amp;nbsp;rating_id : int&lt;/div&gt;&lt;div&gt;-&amp;nbsp; &amp;nbsp;student : User&lt;/div&gt;&lt;div&gt;-&amp;nbsp; &amp;nbsp;course : Course&lt;/div&gt;&lt;div&gt;-&amp;nbsp; &amp;nbsp;rating : int&lt;/div&gt;&lt;div&gt;-&amp;nbsp; &amp;nbsp;feedback : string&lt;/div&gt;" style="text;strokeColor=none;fillColor=none;align=left;verticalAlign=top;spacingLeft=4;spacingRight=4;overflow=hidden;rotatable=0;points=[[0,0.5],[1,0.5]];portConstraint=eastwest;whiteSpace=wrap;html=1;" vertex="1" parent="n4m6zhsQNTLVs5OmzVJr-13">
          <mxGeometry y="26" width="160" height="134" as="geometry" />
        </mxCell>
        <mxCell id="n4m6zhsQNTLVs5OmzVJr-15" value="Cart" style="swimlane;fontStyle=1;align=center;verticalAlign=top;childLayout=stackLayout;horizontal=1;startSize=26;horizontalStack=0;resizeParent=1;resizeParentMax=0;resizeLast=0;collapsible=1;marginBottom=0;whiteSpace=wrap;html=1;" vertex="1" parent="WIyWlLk6GJQsqaUBKTNV-1">
          <mxGeometry x="120" y="600" width="160" height="120" as="geometry" />
        </mxCell>
        <mxCell id="n4m6zhsQNTLVs5OmzVJr-16" value="-&amp;nbsp; &amp;nbsp;user&amp;nbsp; : User&lt;div&gt;-&amp;nbsp; &amp;nbsp;course : Course&lt;/div&gt;&lt;div&gt;-&amp;nbsp; &amp;nbsp;added_on : DateTime&lt;/div&gt;&lt;div&gt;-&amp;nbsp; &amp;nbsp;user_id : int&lt;/div&gt;" style="text;strokeColor=none;fillColor=none;align=left;verticalAlign=top;spacingLeft=4;spacingRight=4;overflow=hidden;rotatable=0;points=[[0,0.5],[1,0.5]];portConstraint=eastwest;whiteSpace=wrap;html=1;" vertex="1" parent="n4m6zhsQNTLVs5OmzVJr-15">
          <mxGeometry y="26" width="160" height="94" as="geometry" />
        </mxCell>
        <mxCell id="n4m6zhsQNTLVs5OmzVJr-17" value="Payment" style="swimlane;fontStyle=1;align=center;verticalAlign=top;childLayout=stackLayout;horizontal=1;startSize=26;horizontalStack=0;resizeParent=1;resizeParentMax=0;resizeLast=0;collapsible=1;marginBottom=0;whiteSpace=wrap;html=1;" vertex="1" parent="WIyWlLk6GJQsqaUBKTNV-1">
          <mxGeometry x="340" y="700" width="180" height="140" as="geometry" />
        </mxCell>
        <mxCell id="n4m6zhsQNTLVs5OmzVJr-18" value="-&amp;nbsp; &amp;nbsp;payment_id : int&lt;div&gt;-&amp;nbsp; &amp;nbsp;user : User&lt;/div&gt;&lt;div&gt;-&amp;nbsp; &amp;nbsp;course : Course&lt;/div&gt;&lt;div&gt;-&amp;nbsp; &amp;nbsp;amount : float&lt;/div&gt;&lt;div&gt;-&amp;nbsp; &amp;nbsp;method : PaymentMenthod&lt;/div&gt;" style="text;strokeColor=none;fillColor=none;align=left;verticalAlign=top;spacingLeft=4;spacingRight=4;overflow=hidden;rotatable=0;points=[[0,0.5],[1,0.5]];portConstraint=eastwest;whiteSpace=wrap;html=1;" vertex="1" parent="n4m6zhsQNTLVs5OmzVJr-17">
          <mxGeometry y="26" width="180" height="114" as="geometry" />
        </mxCell>
        <mxCell id="n4m6zhsQNTLVs5OmzVJr-19" value="Category" style="swimlane;fontStyle=1;align=center;verticalAlign=top;childLayout=stackLayout;horizontal=1;startSize=26;horizontalStack=0;resizeParent=1;resizeParentMax=0;resizeLast=0;collapsible=1;marginBottom=0;whiteSpace=wrap;html=1;" vertex="1" parent="WIyWlLk6GJQsqaUBKTNV-1">
          <mxGeometry x="120" y="400" width="160" height="100" as="geometry" />
        </mxCell>
        <mxCell id="n4m6zhsQNTLVs5OmzVJr-20" value="-&amp;nbsp; &amp;nbsp;category_id : int&lt;div&gt;-&amp;nbsp; &amp;nbsp;name : string&lt;/div&gt;" style="text;strokeColor=none;fillColor=none;align=left;verticalAlign=top;spacingLeft=4;spacingRight=4;overflow=hidden;rotatable=0;points=[[0,0.5],[1,0.5]];portConstraint=eastwest;whiteSpace=wrap;html=1;" vertex="1" parent="n4m6zhsQNTLVs5OmzVJr-19">
          <mxGeometry y="26" width="160" height="74" as="geometry" />
        </mxCell>
        <mxCell id="n4m6zhsQNTLVs5OmzVJr-21" value="User (Instructor)" style="swimlane;fontStyle=1;align=center;verticalAlign=top;childLayout=stackLayout;horizontal=1;startSize=26;horizontalStack=0;resizeParent=1;resizeParentMax=0;resizeLast=0;collapsible=1;marginBottom=0;whiteSpace=wrap;html=1;" vertex="1" parent="WIyWlLk6GJQsqaUBKTNV-1">
          <mxGeometry x="333.5" y="40" width="160" height="250" as="geometry" />
        </mxCell>
        <mxCell id="n4m6zhsQNTLVs5OmzVJr-22" value="-&amp;nbsp; &amp;nbsp;user_id : int&lt;div&gt;-&amp;nbsp; &amp;nbsp;name: string&lt;/div&gt;&lt;div&gt;-&amp;nbsp; &amp;nbsp;email: string&lt;/div&gt;&lt;div&gt;-&amp;nbsp; &amp;nbsp;password_hash: string&lt;/div&gt;&lt;div&gt;-&amp;nbsp; &amp;nbsp;role: UserRole&lt;br&gt;&lt;div&gt;&lt;br&gt;&lt;/div&gt;&lt;/div&gt;" style="text;strokeColor=none;fillColor=none;align=left;verticalAlign=top;spacingLeft=4;spacingRight=4;overflow=hidden;rotatable=0;points=[[0,0.5],[1,0.5]];portConstraint=eastwest;whiteSpace=wrap;html=1;" vertex="1" parent="n4m6zhsQNTLVs5OmzVJr-21">
          <mxGeometry y="26" width="160" height="84" as="geometry" />
        </mxCell>
        <mxCell id="n4m6zhsQNTLVs5OmzVJr-23" value="" style="line;strokeWidth=1;fillColor=none;align=left;verticalAlign=middle;spacingTop=-1;spacingLeft=3;spacingRight=3;rotatable=0;labelPosition=right;points=[];portConstraint=eastwest;strokeColor=inherit;" vertex="1" parent="n4m6zhsQNTLVs5OmzVJr-21">
          <mxGeometry y="110" width="160" height="8" as="geometry" />
        </mxCell>
        <mxCell id="n4m6zhsQNTLVs5OmzVJr-24" value="+&amp;nbsp; &amp;nbsp;create (Course)&lt;div&gt;+&amp;nbsp; &amp;nbsp;visualize_data (Course)&lt;/div&gt;&lt;div&gt;+&amp;nbsp; &amp;nbsp;view_rating_and_review&lt;/div&gt;&lt;div&gt;+&amp;nbsp; &amp;nbsp;viualize_data (Payment)&lt;/div&gt;&lt;div&gt;+&amp;nbsp; &amp;nbsp;delete_account&lt;/div&gt;&lt;div&gt;&lt;div&gt;&lt;br&gt;&lt;/div&gt;&lt;/div&gt;" style="text;strokeColor=none;fillColor=none;align=left;verticalAlign=top;spacingLeft=4;spacingRight=4;overflow=hidden;rotatable=0;points=[[0,0.5],[1,0.5]];portConstraint=eastwest;whiteSpace=wrap;html=1;" vertex="1" parent="n4m6zhsQNTLVs5OmzVJr-21">
          <mxGeometry y="118" width="160" height="132" as="geometry" />
        </mxCell>
        <mxCell id="n4m6zhsQNTLVs5OmzVJr-25" value="User (Admin)" style="swimlane;fontStyle=1;align=center;verticalAlign=top;childLayout=stackLayout;horizontal=1;startSize=26;horizontalStack=0;resizeParent=1;resizeParentMax=0;resizeLast=0;collapsible=1;marginBottom=0;whiteSpace=wrap;html=1;" vertex="1" parent="WIyWlLk6GJQsqaUBKTNV-1">
          <mxGeometry x="620" y="40" width="160" height="170" as="geometry" />
        </mxCell>
        <mxCell id="n4m6zhsQNTLVs5OmzVJr-26" value="-&amp;nbsp; &amp;nbsp;user_id : int&lt;div&gt;-&amp;nbsp; &amp;nbsp;name: string&lt;/div&gt;&lt;div&gt;-&amp;nbsp; &amp;nbsp;email: string&lt;/div&gt;&lt;div&gt;-&amp;nbsp; &amp;nbsp;password_hash: string&lt;/div&gt;&lt;div&gt;-&amp;nbsp; &amp;nbsp;role: UserRole&lt;br&gt;&lt;div&gt;&lt;br&gt;&lt;/div&gt;&lt;/div&gt;" style="text;strokeColor=none;fillColor=none;align=left;verticalAlign=top;spacingLeft=4;spacingRight=4;overflow=hidden;rotatable=0;points=[[0,0.5],[1,0.5]];portConstraint=eastwest;whiteSpace=wrap;html=1;" vertex="1" parent="n4m6zhsQNTLVs5OmzVJr-25">
          <mxGeometry y="26" width="160" height="84" as="geometry" />
        </mxCell>
        <mxCell id="n4m6zhsQNTLVs5OmzVJr-27" value="" style="line;strokeWidth=1;fillColor=none;align=left;verticalAlign=middle;spacingTop=-1;spacingLeft=3;spacingRight=3;rotatable=0;labelPosition=right;points=[];portConstraint=eastwest;strokeColor=inherit;" vertex="1" parent="n4m6zhsQNTLVs5OmzVJr-25">
          <mxGeometry y="110" width="160" height="8" as="geometry" />
        </mxCell>
        <mxCell id="n4m6zhsQNTLVs5OmzVJr-28" value="&lt;div&gt;&lt;div&gt;+&amp;nbsp; &amp;nbsp;create_course_category&lt;/div&gt;&lt;/div&gt;" style="text;strokeColor=none;fillColor=none;align=left;verticalAlign=top;spacingLeft=4;spacingRight=4;overflow=hidden;rotatable=0;points=[[0,0.5],[1,0.5]];portConstraint=eastwest;whiteSpace=wrap;html=1;" vertex="1" parent="n4m6zhsQNTLVs5OmzVJr-25">
          <mxGeometry y="118" width="160" height="52" as="geometry" />
        </mxCell>
        <mxCell id="n4m6zhsQNTLVs5OmzVJr-41" value="Course" style="swimlane;fontStyle=1;align=center;verticalAlign=top;childLayout=stackLayout;horizontal=1;startSize=26;horizontalStack=0;resizeParent=1;resizeParentMax=0;resizeLast=0;collapsible=1;marginBottom=0;whiteSpace=wrap;html=1;" vertex="1" parent="WIyWlLk6GJQsqaUBKTNV-1">
          <mxGeometry x="520" y="400" width="230" height="200" as="geometry" />
        </mxCell>
        <mxCell id="n4m6zhsQNTLVs5OmzVJr-42" value="&lt;div&gt;&lt;div&gt;-&amp;nbsp; &amp;nbsp;course_id: int&lt;div&gt;-&amp;nbsp; &amp;nbsp;title: string&lt;/div&gt;&lt;div&gt;-&amp;nbsp; &amp;nbsp;description: string&lt;/div&gt;&lt;div&gt;-&amp;nbsp; &amp;nbsp;instructor: User&lt;/div&gt;&lt;div&gt;-&amp;nbsp; &amp;nbsp;rating : float&lt;/div&gt;&lt;div&gt;-&amp;nbsp; &amp;nbsp;price : float&lt;/div&gt;&lt;div&gt;-&amp;nbsp; &amp;nbsp;category : Category&lt;/div&gt;&lt;/div&gt;&lt;/div&gt;&lt;div&gt;-&amp;nbsp; &amp;nbsp;get_details : void&lt;/div&gt;&lt;div&gt;-&amp;nbsp; &amp;nbsp;getContent (contentId : int) : Content&lt;/div&gt;" style="text;strokeColor=none;fillColor=none;align=left;verticalAlign=top;spacingLeft=4;spacingRight=4;overflow=hidden;rotatable=0;points=[[0,0.5],[1,0.5]];portConstraint=eastwest;whiteSpace=wrap;html=1;" vertex="1" parent="n4m6zhsQNTLVs5OmzVJr-41">
          <mxGeometry y="26" width="230" height="174" as="geometry" />
        </mxCell>
        <mxCell id="n4m6zhsQNTLVs5OmzVJr-55" value="1" style="endArrow=open;html=1;endSize=12;startArrow=diamondThin;startSize=14;startFill=1;edgeStyle=orthogonalEdgeStyle;align=left;verticalAlign=bottom;rounded=0;exitX=0.433;exitY=1.027;exitDx=0;exitDy=0;exitPerimeter=0;entryX=0.5;entryY=0;entryDx=0;entryDy=0;" edge="1" parent="WIyWlLk6GJQsqaUBKTNV-1" source="n4m6zhsQNTLVs5OmzVJr-24" target="n4m6zhsQNTLVs5OmzVJr-41">
          <mxGeometry x="-0.9029" y="7" relative="1" as="geometry">
            <mxPoint x="540" y="260" as="sourcePoint" />
            <mxPoint x="700" y="260" as="targetPoint" />
            <Array as="points">
              <mxPoint x="403" y="340" />
              <mxPoint x="635" y="340" />
            </Array>
            <mxPoint as="offset" />
          </mxGeometry>
        </mxCell>
        <mxCell id="n4m6zhsQNTLVs5OmzVJr-57" value="1" style="endArrow=open;html=1;endSize=12;startArrow=diamondThin;startSize=14;startFill=1;edgeStyle=orthogonalEdgeStyle;align=left;verticalAlign=bottom;rounded=0;exitX=0.998;exitY=-0.043;exitDx=0;exitDy=0;exitPerimeter=0;entryX=0;entryY=0.5;entryDx=0;entryDy=0;" edge="1" parent="WIyWlLk6GJQsqaUBKTNV-1" source="n4m6zhsQNTLVs5OmzVJr-4" target="n4m6zhsQNTLVs5OmzVJr-42">
          <mxGeometry x="-1" y="3" relative="1" as="geometry">
            <mxPoint x="370" y="360" as="sourcePoint" />
            <mxPoint x="530" y="360" as="targetPoint" />
            <Array as="points">
              <mxPoint x="310" y="153" />
              <mxPoint x="310" y="513" />
            </Array>
          </mxGeometry>
        </mxCell>
        <mxCell id="n4m6zhsQNTLVs5OmzVJr-58" value="M" style="text;html=1;align=center;verticalAlign=middle;resizable=0;points=[];autosize=1;strokeColor=none;fillColor=none;" vertex="1" parent="WIyWlLk6GJQsqaUBKTNV-1">
          <mxGeometry x="475" y="478" width="30" height="30" as="geometry" />
        </mxCell>
        <mxCell id="n4m6zhsQNTLVs5OmzVJr-59" value="1" style="endArrow=open;html=1;endSize=12;startArrow=diamondThin;startSize=14;startFill=1;edgeStyle=orthogonalEdgeStyle;align=left;verticalAlign=bottom;rounded=0;exitX=0.533;exitY=1.054;exitDx=0;exitDy=0;exitPerimeter=0;entryX=0.5;entryY=0;entryDx=0;entryDy=0;" edge="1" parent="WIyWlLk6GJQsqaUBKTNV-1" source="n4m6zhsQNTLVs5OmzVJr-28" target="n4m6zhsQNTLVs5OmzVJr-19">
          <mxGeometry x="-0.9215" y="5" relative="1" as="geometry">
            <mxPoint x="370" y="360" as="sourcePoint" />
            <mxPoint x="530" y="360" as="targetPoint" />
            <Array as="points">
              <mxPoint x="705" y="320" />
              <mxPoint x="200" y="320" />
            </Array>
            <mxPoint as="offset" />
          </mxGeometry>
        </mxCell>
        <mxCell id="n4m6zhsQNTLVs5OmzVJr-60" value="M" style="text;html=1;align=center;verticalAlign=middle;resizable=0;points=[];autosize=1;strokeColor=none;fillColor=none;" vertex="1" parent="WIyWlLk6GJQsqaUBKTNV-1">
          <mxGeometry x="200" y="360" width="30" height="30" as="geometry" />
        </mxCell>
        <mxCell id="n4m6zhsQNTLVs5OmzVJr-61" value="M" style="text;html=1;align=center;verticalAlign=middle;resizable=0;points=[];autosize=1;strokeColor=none;fillColor=none;" vertex="1" parent="WIyWlLk6GJQsqaUBKTNV-1">
          <mxGeometry x="640" y="360" width="30" height="30" as="geometry" />
        </mxCell>
        <mxCell id="n4m6zhsQNTLVs5OmzVJr-67" value="1" style="endArrow=open;html=1;endSize=12;startArrow=diamondThin;startSize=14;startFill=1;edgeStyle=orthogonalEdgeStyle;align=left;verticalAlign=bottom;rounded=0;exitX=0.193;exitY=0.987;exitDx=0;exitDy=0;exitPerimeter=0;entryX=0;entryY=0.5;entryDx=0;entryDy=0;" edge="1" parent="WIyWlLk6GJQsqaUBKTNV-1" source="n4m6zhsQNTLVs5OmzVJr-4">
          <mxGeometry x="-0.9147" y="9" relative="1" as="geometry">
            <mxPoint x="107.48000000000002" y="282.44000000000005" as="sourcePoint" />
            <mxPoint x="119" y="673" as="targetPoint" />
            <Array as="points">
              <mxPoint x="71" y="673" />
            </Array>
            <mxPoint as="offset" />
          </mxGeometry>
        </mxCell>
        <mxCell id="n4m6zhsQNTLVs5OmzVJr-68" value="1" style="text;html=1;align=center;verticalAlign=middle;resizable=0;points=[];autosize=1;strokeColor=none;fillColor=none;" vertex="1" parent="WIyWlLk6GJQsqaUBKTNV-1">
          <mxGeometry x="80" y="645" width="30" height="30" as="geometry" />
        </mxCell>
        <mxCell id="n4m6zhsQNTLVs5OmzVJr-69" value="1" style="endArrow=open;html=1;endSize=12;startArrow=diamondThin;startSize=14;startFill=1;edgeStyle=orthogonalEdgeStyle;align=left;verticalAlign=bottom;rounded=0;exitX=1;exitY=0.5;exitDx=0;exitDy=0;entryX=0.5;entryY=0;entryDx=0;entryDy=0;" edge="1" parent="WIyWlLk6GJQsqaUBKTNV-1" source="n4m6zhsQNTLVs5OmzVJr-16" target="n4m6zhsQNTLVs5OmzVJr-17">
          <mxGeometry x="-1" y="3" relative="1" as="geometry">
            <mxPoint x="190" y="800" as="sourcePoint" />
            <mxPoint x="350" y="800" as="targetPoint" />
          </mxGeometry>
        </mxCell>
        <mxCell id="n4m6zhsQNTLVs5OmzVJr-70" value="M" style="text;html=1;align=center;verticalAlign=middle;resizable=0;points=[];autosize=1;strokeColor=none;fillColor=none;" vertex="1" parent="WIyWlLk6GJQsqaUBKTNV-1">
          <mxGeometry x="430" y="670" width="30" height="30" as="geometry" />
        </mxCell>
        <mxCell id="n4m6zhsQNTLVs5OmzVJr-71" value="" style="html=1;verticalAlign=bottom;endArrow=block;curved=0;rounded=0;exitX=0.52;exitY=1.005;exitDx=0;exitDy=0;exitPerimeter=0;entryX=0.5;entryY=0;entryDx=0;entryDy=0;" edge="1" parent="WIyWlLk6GJQsqaUBKTNV-1" source="n4m6zhsQNTLVs5OmzVJr-42" target="n4m6zhsQNTLVs5OmzVJr-9">
          <mxGeometry width="80" relative="1" as="geometry">
            <mxPoint x="410" y="690" as="sourcePoint" />
            <mxPoint x="490" y="690" as="targetPoint" />
            <Array as="points">
              <mxPoint x="640" y="680" />
              <mxPoint x="730" y="680" />
            </Array>
          </mxGeometry>
        </mxCell>
        <mxCell id="n4m6zhsQNTLVs5OmzVJr-72" value="1" style="text;html=1;align=center;verticalAlign=middle;resizable=0;points=[];autosize=1;strokeColor=none;fillColor=none;" vertex="1" parent="WIyWlLk6GJQsqaUBKTNV-1">
          <mxGeometry x="610" y="600" width="30" height="30" as="geometry" />
        </mxCell>
        <mxCell id="n4m6zhsQNTLVs5OmzVJr-73" value="M" style="text;html=1;align=center;verticalAlign=middle;resizable=0;points=[];autosize=1;strokeColor=none;fillColor=none;" vertex="1" parent="WIyWlLk6GJQsqaUBKTNV-1">
          <mxGeometry x="700" y="770" width="30" height="30" as="geometry" />
        </mxCell>
        <mxCell id="n4m6zhsQNTLVs5OmzVJr-74" value="" style="html=1;verticalAlign=bottom;endArrow=block;curved=0;rounded=0;exitX=0.304;exitY=1.028;exitDx=0;exitDy=0;exitPerimeter=0;entryX=1;entryY=0.5;entryDx=0;entryDy=0;" edge="1" parent="WIyWlLk6GJQsqaUBKTNV-1">
          <mxGeometry width="80" relative="1" as="geometry">
            <mxPoint x="589.9200000000001" y="600.0020000000001" as="sourcePoint" />
            <mxPoint x="510" y="1038.13" as="targetPoint" />
            <Array as="points">
              <mxPoint x="590" y="759.63" />
              <mxPoint x="590" y="1038.13" />
            </Array>
          </mxGeometry>
        </mxCell>
        <mxCell id="n4m6zhsQNTLVs5OmzVJr-75" value="1" style="text;html=1;align=center;verticalAlign=middle;resizable=0;points=[];autosize=1;strokeColor=none;fillColor=none;" vertex="1" parent="WIyWlLk6GJQsqaUBKTNV-1">
          <mxGeometry x="565" y="600" width="30" height="30" as="geometry" />
        </mxCell>
        <mxCell id="n4m6zhsQNTLVs5OmzVJr-76" value="M" style="text;html=1;align=center;verticalAlign=middle;resizable=0;points=[];autosize=1;strokeColor=none;fillColor=none;" vertex="1" parent="WIyWlLk6GJQsqaUBKTNV-1">
          <mxGeometry x="520" y="1010" width="30" height="30" as="geometry" />
        </mxCell>
        <mxCell id="n4m6zhsQNTLVs5OmzVJr-77" value="1" style="endArrow=open;html=1;endSize=12;startArrow=diamondThin;startSize=14;startFill=1;edgeStyle=orthogonalEdgeStyle;align=left;verticalAlign=bottom;rounded=0;exitX=0;exitY=0.5;exitDx=0;exitDy=0;entryX=0.5;entryY=0;entryDx=0;entryDy=0;" edge="1" parent="WIyWlLk6GJQsqaUBKTNV-1" source="n4m6zhsQNTLVs5OmzVJr-18" target="n4m6zhsQNTLVs5OmzVJr-11">
          <mxGeometry x="-0.8697" relative="1" as="geometry">
            <mxPoint x="290" y="683" as="sourcePoint" />
            <mxPoint x="120" y="860" as="targetPoint" />
            <Array as="points">
              <mxPoint x="120" y="783" />
            </Array>
            <mxPoint as="offset" />
          </mxGeometry>
        </mxCell>
        <mxCell id="n4m6zhsQNTLVs5OmzVJr-78" value="1" style="text;html=1;align=center;verticalAlign=middle;resizable=0;points=[];autosize=1;strokeColor=none;fillColor=none;" vertex="1" parent="WIyWlLk6GJQsqaUBKTNV-1">
          <mxGeometry x="120" y="840" width="30" height="30" as="geometry" />
        </mxCell>
        <mxCell id="n4m6zhsQNTLVs5OmzVJr-79" value="" style="html=1;verticalAlign=bottom;endArrow=block;curved=0;rounded=0;exitX=0.13;exitY=1;exitDx=0;exitDy=0;exitPerimeter=0;entryX=1;entryY=0.5;entryDx=0;entryDy=0;" edge="1" parent="WIyWlLk6GJQsqaUBKTNV-1" source="n4m6zhsQNTLVs5OmzVJr-42" target="n4m6zhsQNTLVs5OmzVJr-12">
          <mxGeometry width="80" relative="1" as="geometry">
            <mxPoint x="599.9200000000001" y="610.0020000000001" as="sourcePoint" />
            <mxPoint x="520" y="1048.13" as="targetPoint" />
            <Array as="points">
              <mxPoint x="550" y="770" />
              <mxPoint x="550" y="923" />
            </Array>
          </mxGeometry>
        </mxCell>
        <mxCell id="n4m6zhsQNTLVs5OmzVJr-80" value="1" style="text;html=1;align=center;verticalAlign=middle;resizable=0;points=[];autosize=1;strokeColor=none;fillColor=none;" vertex="1" parent="WIyWlLk6GJQsqaUBKTNV-1">
          <mxGeometry x="520" y="600" width="30" height="30" as="geometry" />
        </mxCell>
        <mxCell id="n4m6zhsQNTLVs5OmzVJr-81" value="M" style="text;html=1;align=center;verticalAlign=middle;resizable=0;points=[];autosize=1;strokeColor=none;fillColor=none;" vertex="1" parent="WIyWlLk6GJQsqaUBKTNV-1">
          <mxGeometry x="200" y="895" width="30" height="30" as="geometry" />
        </mxCell>
      </root>
    </mxGraphModel>
  </diagram>
</mxfile>
